<svg xmlns="http://www.w3.org/2000/svg" xmlns:xlink="http://www.w3.org/1999/xlink" width="5000" zoomAndPan="magnify" viewBox="0 0 3750 749.999995" height="1000" preserveAspectRatio="xMidYMid meet" version="1.0"><defs><g/><clipPath id="dde87f5ed5"><path d="M 0.960938 0.28125 L 3629.039062 0.28125 L 3629.039062 592.121094 L 0.960938 592.121094 Z M 0.960938 0.28125 " clip-rule="nonzero"/></clipPath><clipPath id="551a2f3c80"><rect x="0" width="3630" y="0" height="593"/></clipPath><clipPath id="3739e2393a"><path d="M 1629 0.28125 L 2001 0.28125 L 2001 592.121094 L 1629 592.121094 Z M 1629 0.28125 " clip-rule="nonzero"/></clipPath><clipPath id="74dabacf3d"><rect x="0" width="372" y="0" height="593"/></clipPath><clipPath id="240aa4b332"><rect x="0" width="3630" y="0" height="593"/></clipPath></defs><g transform="matrix(1, 0, 0, 1, 102, 83)"><g clip-path="url(#240aa4b332)"><g clip-path="url(#dde87f5ed5)"><g transform="matrix(1, 0, 0, 1, -0.000000000000014211, -0.000000000000056843)"><g clip-path="url(#551a2f3c80)"><g fill="#000000" fill-opacity="1"><g transform="translate(1.642472, 486.355283)"><g><path d="M 78.890625 -60.15625 C 86.941406 -49.300781 95.734375 -41.65625 105.265625 -37.21875 C 114.796875 -32.78125 125.476562 -30.5625 137.3125 -30.5625 C 160.65625 -30.5625 178.570312 -38.863281 191.0625 -55.46875 C 203.550781 -72.070312 209.796875 -95.738281 209.796875 -126.46875 C 209.796875 -142.738281 208.359375 -156.707031 205.484375 -168.375 C 202.609375 -180.050781 198.457031 -189.625 193.03125 -197.09375 C 187.601562 -204.570312 180.945312 -210.035156 173.0625 -213.484375 C 165.175781 -216.941406 156.21875 -218.671875 146.1875 -218.671875 C 131.894531 -218.671875 119.363281 -215.382812 108.59375 -208.8125 C 97.832031 -202.238281 87.929688 -192.953125 78.890625 -180.953125 Z M 76.671875 -211.03125 C 87.191406 -224.007812 99.351562 -234.441406 113.15625 -242.328125 C 126.957031 -250.222656 142.734375 -254.171875 160.484375 -254.171875 C 174.953125 -254.171875 188.019531 -251.414062 199.6875 -245.90625 C 211.351562 -240.40625 221.296875 -232.269531 229.515625 -221.5 C 237.734375 -210.738281 244.0625 -197.382812 248.5 -181.4375 C 252.9375 -165.5 255.15625 -147.175781 255.15625 -126.46875 C 255.15625 -108.0625 252.691406 -90.925781 247.765625 -75.0625 C 242.835938 -59.207031 235.726562 -45.484375 226.4375 -33.890625 C 217.15625 -22.304688 205.816406 -13.1875 192.421875 -6.53125 C 179.023438 0.125 163.941406 3.453125 147.171875 3.453125 C 131.890625 3.453125 118.785156 0.863281 107.859375 -4.3125 C 96.929688 -9.488281 87.273438 -16.679688 78.890625 -25.890625 L 78.890625 84.5625 L 34.765625 84.5625 L 34.765625 -249.734375 L 61.140625 -249.734375 C 67.390625 -249.734375 71.253906 -246.691406 72.734375 -240.609375 Z M 76.671875 -211.03125 "/></g></g></g><g fill="#000000" fill-opacity="1"><g transform="translate(361.827989, 486.355283)"><g><path d="M 76.421875 -199.6875 C 84.316406 -216.78125 94.015625 -230.132812 105.515625 -239.75 C 117.015625 -249.363281 131.066406 -254.171875 147.671875 -254.171875 C 152.929688 -254.171875 157.984375 -253.59375 162.828125 -252.4375 C 167.679688 -251.289062 172 -249.488281 175.78125 -247.03125 L 172.578125 -214.234375 C 171.585938 -210.128906 169.117188 -208.078125 165.171875 -208.078125 C 162.867188 -208.078125 159.5 -208.566406 155.0625 -209.546875 C 150.625 -210.535156 145.613281 -211.03125 140.03125 -211.03125 C 132.144531 -211.03125 125.117188 -209.878906 118.953125 -207.578125 C 112.785156 -205.273438 107.273438 -201.863281 102.421875 -197.34375 C 97.578125 -192.820312 93.222656 -187.234375 89.359375 -180.578125 C 85.503906 -173.921875 82.015625 -166.320312 78.890625 -157.78125 L 78.890625 0 L 34.765625 0 L 34.765625 -249.734375 L 59.90625 -249.734375 C 64.675781 -249.734375 67.960938 -248.828125 69.765625 -247.015625 C 71.578125 -245.210938 72.8125 -242.09375 73.46875 -237.65625 Z M 76.421875 -199.6875 "/></g></g></g><g fill="#000000" fill-opacity="1"><g transform="translate(615.018257, 486.355283)"><g><path d="M 140.03125 -253.6875 C 158.269531 -253.6875 174.703125 -250.644531 189.328125 -244.5625 C 203.960938 -238.476562 216.457031 -229.847656 226.8125 -218.671875 C 237.164062 -207.492188 245.09375 -193.972656 250.59375 -178.109375 C 256.101562 -162.253906 258.859375 -144.546875 258.859375 -124.984375 C 258.859375 -105.265625 256.101562 -87.515625 250.59375 -71.734375 C 245.09375 -55.960938 237.164062 -42.488281 226.8125 -31.3125 C 216.457031 -20.132812 203.960938 -11.546875 189.328125 -5.546875 C 174.703125 0.453125 158.269531 3.453125 140.03125 3.453125 C 121.625 3.453125 105.066406 0.453125 90.359375 -5.546875 C 75.648438 -11.546875 63.113281 -20.132812 52.75 -31.3125 C 42.394531 -42.488281 34.460938 -55.960938 28.953125 -71.734375 C 23.453125 -87.515625 20.703125 -105.265625 20.703125 -124.984375 C 20.703125 -144.546875 23.453125 -162.253906 28.953125 -178.109375 C 34.460938 -193.972656 42.394531 -207.492188 52.75 -218.671875 C 63.113281 -229.847656 75.648438 -238.476562 90.359375 -244.5625 C 105.066406 -250.644531 121.625 -253.6875 140.03125 -253.6875 Z M 140.03125 -30.8125 C 164.6875 -30.8125 183.09375 -39.070312 195.25 -55.59375 C 207.414062 -72.113281 213.5 -95.164062 213.5 -124.75 C 213.5 -154.488281 207.414062 -177.660156 195.25 -194.265625 C 183.09375 -210.867188 164.6875 -219.171875 140.03125 -219.171875 C 127.539062 -219.171875 116.648438 -217.03125 107.359375 -212.75 C 98.078125 -208.476562 90.351562 -202.316406 84.1875 -194.265625 C 78.03125 -186.210938 73.429688 -176.3125 70.390625 -164.5625 C 67.347656 -152.8125 65.828125 -139.539062 65.828125 -124.75 C 65.828125 -95.164062 71.945312 -72.113281 84.1875 -55.59375 C 96.4375 -39.070312 115.050781 -30.8125 140.03125 -30.8125 Z M 140.03125 -30.8125 "/></g></g></g><g fill="#000000" fill-opacity="1"><g transform="translate(978.408667, 486.355283)"><g><path d="M 140.03125 -253.6875 C 158.269531 -253.6875 174.703125 -250.644531 189.328125 -244.5625 C 203.960938 -238.476562 216.457031 -229.847656 226.8125 -218.671875 C 237.164062 -207.492188 245.09375 -193.972656 250.59375 -178.109375 C 256.101562 -162.253906 258.859375 -144.546875 258.859375 -124.984375 C 258.859375 -105.265625 256.101562 -87.515625 250.59375 -71.734375 C 245.09375 -55.960938 237.164062 -42.488281 226.8125 -31.3125 C 216.457031 -20.132812 203.960938 -11.546875 189.328125 -5.546875 C 174.703125 0.453125 158.269531 3.453125 140.03125 3.453125 C 121.625 3.453125 105.066406 0.453125 90.359375 -5.546875 C 75.648438 -11.546875 63.113281 -20.132812 52.75 -31.3125 C 42.394531 -42.488281 34.460938 -55.960938 28.953125 -71.734375 C 23.453125 -87.515625 20.703125 -105.265625 20.703125 -124.984375 C 20.703125 -144.546875 23.453125 -162.253906 28.953125 -178.109375 C 34.460938 -193.972656 42.394531 -207.492188 52.75 -218.671875 C 63.113281 -229.847656 75.648438 -238.476562 90.359375 -244.5625 C 105.066406 -250.644531 121.625 -253.6875 140.03125 -253.6875 Z M 140.03125 -30.8125 C 164.6875 -30.8125 183.09375 -39.070312 195.25 -55.59375 C 207.414062 -72.113281 213.5 -95.164062 213.5 -124.75 C 213.5 -154.488281 207.414062 -177.660156 195.25 -194.265625 C 183.09375 -210.867188 164.6875 -219.171875 140.03125 -219.171875 C 127.539062 -219.171875 116.648438 -217.03125 107.359375 -212.75 C 98.078125 -208.476562 90.351562 -202.316406 84.1875 -194.265625 C 78.03125 -186.210938 73.429688 -176.3125 70.390625 -164.5625 C 67.347656 -152.8125 65.828125 -139.539062 65.828125 -124.75 C 65.828125 -95.164062 71.945312 -72.113281 84.1875 -55.59375 C 96.4375 -39.070312 115.050781 -30.8125 140.03125 -30.8125 Z M 140.03125 -30.8125 "/></g></g></g><g fill="#000000" fill-opacity="1"><g transform="translate(1336.375444, 486.355283)"><g><path d="M 51.03125 0 L 51.03125 -212.265625 L 23.421875 -215.46875 C 19.972656 -216.289062 17.140625 -217.5625 14.921875 -219.28125 C 12.703125 -221.007812 11.59375 -223.519531 11.59375 -226.8125 L 11.59375 -244.8125 L 51.03125 -244.8125 L 51.03125 -268.96875 C 51.03125 -283.257812 53.039062 -295.953125 57.0625 -307.046875 C 61.09375 -318.148438 66.847656 -327.519531 74.328125 -335.15625 C 81.804688 -342.800781 90.804688 -348.59375 101.328125 -352.53125 C 111.847656 -356.476562 123.679688 -358.453125 136.828125 -358.453125 C 148.003906 -358.453125 158.273438 -356.8125 167.640625 -353.53125 L 166.65625 -331.578125 C 166.320312 -327.640625 164.140625 -325.503906 160.109375 -325.171875 C 156.085938 -324.847656 150.707031 -324.6875 143.96875 -324.6875 C 136.414062 -324.6875 129.554688 -323.695312 123.390625 -321.71875 C 117.222656 -319.75 111.921875 -316.546875 107.484375 -312.109375 C 103.046875 -307.671875 99.632812 -301.832031 97.25 -294.59375 C 94.875 -287.363281 93.6875 -278.410156 93.6875 -267.734375 L 93.6875 -244.8125 L 165.671875 -244.8125 L 165.671875 -213 L 95.15625 -213 L 95.15625 0 Z M 51.03125 0 "/></g></g></g><g fill="#000000" fill-opacity="1"><g transform="translate(1583.896301, 486.355283)"><g/></g></g><g fill="#000000" fill-opacity="1"><g transform="translate(1793.943256, 486.355283)"><g/></g></g><g fill="#000000" fill-opacity="1"><g transform="translate(2004.00173, 486.355283)"><g><path d="M 76.421875 -199.6875 C 84.316406 -216.78125 94.015625 -230.132812 105.515625 -239.75 C 117.015625 -249.363281 131.066406 -254.171875 147.671875 -254.171875 C 152.929688 -254.171875 157.984375 -253.59375 162.828125 -252.4375 C 167.679688 -251.289062 172 -249.488281 175.78125 -247.03125 L 172.578125 -214.234375 C 171.585938 -210.128906 169.117188 -208.078125 165.171875 -208.078125 C 162.867188 -208.078125 159.5 -208.566406 155.0625 -209.546875 C 150.625 -210.535156 145.613281 -211.03125 140.03125 -211.03125 C 132.144531 -211.03125 125.117188 -209.878906 118.953125 -207.578125 C 112.785156 -205.273438 107.273438 -201.863281 102.421875 -197.34375 C 97.578125 -192.820312 93.222656 -187.234375 89.359375 -180.578125 C 85.503906 -173.921875 82.015625 -166.320312 78.890625 -157.78125 L 78.890625 0 L 34.765625 0 L 34.765625 -249.734375 L 59.90625 -249.734375 C 64.675781 -249.734375 67.960938 -248.828125 69.765625 -247.015625 C 71.578125 -245.210938 72.8125 -242.09375 73.46875 -237.65625 Z M 76.421875 -199.6875 "/></g></g></g><g fill="#000000" fill-opacity="1"><g transform="translate(2257.191998, 486.355283)"><g><path d="M 201.90625 -152.109375 C 201.90625 -162.296875 200.46875 -171.617188 197.59375 -180.078125 C 194.71875 -188.546875 190.523438 -195.863281 185.015625 -202.03125 C 179.515625 -208.195312 172.816406 -212.960938 164.921875 -216.328125 C 157.035156 -219.703125 148.082031 -221.390625 138.0625 -221.390625 C 117.019531 -221.390625 100.375 -215.265625 88.125 -203.015625 C 75.882812 -190.773438 68.285156 -173.804688 65.328125 -152.109375 Z M 237.40625 -35 C 231.988281 -28.425781 225.5 -22.710938 217.9375 -17.859375 C 210.375 -13.015625 202.273438 -9.03125 193.640625 -5.90625 C 185.015625 -2.789062 176.097656 -0.453125 166.890625 1.109375 C 157.691406 2.671875 148.570312 3.453125 139.53125 3.453125 C 122.28125 3.453125 106.378906 0.535156 91.828125 -5.296875 C 77.285156 -11.128906 64.710938 -19.675781 54.109375 -30.9375 C 43.515625 -42.195312 35.257812 -56.125 29.34375 -72.71875 C 23.425781 -89.320312 20.46875 -108.390625 20.46875 -129.921875 C 20.46875 -147.335938 23.132812 -163.609375 28.46875 -178.734375 C 33.8125 -193.859375 41.492188 -206.96875 51.515625 -218.0625 C 61.546875 -229.15625 73.789062 -237.863281 88.25 -244.1875 C 102.71875 -250.519531 118.992188 -253.6875 137.078125 -253.6875 C 152.023438 -253.6875 165.867188 -251.175781 178.609375 -246.15625 C 191.347656 -241.144531 202.359375 -233.914062 211.640625 -224.46875 C 220.929688 -215.019531 228.207031 -203.347656 233.46875 -189.453125 C 238.726562 -175.566406 241.359375 -159.75 241.359375 -142 C 241.359375 -135.09375 240.617188 -130.488281 239.140625 -128.1875 C 237.660156 -125.894531 234.863281 -124.75 230.75 -124.75 L 63.859375 -124.75 C 64.347656 -108.96875 66.519531 -95.242188 70.375 -83.578125 C 74.238281 -71.910156 79.625 -62.171875 86.53125 -54.359375 C 93.4375 -46.554688 101.65625 -40.722656 111.1875 -36.859375 C 120.71875 -32.992188 131.398438 -31.0625 143.234375 -31.0625 C 154.242188 -31.0625 163.734375 -32.332031 171.703125 -34.875 C 179.679688 -37.425781 186.546875 -40.179688 192.296875 -43.140625 C 198.046875 -46.097656 202.851562 -48.847656 206.71875 -51.390625 C 210.582031 -53.941406 213.910156 -55.21875 216.703125 -55.21875 C 220.316406 -55.21875 223.109375 -53.820312 225.078125 -51.03125 Z M 237.40625 -35 "/></g></g></g><g fill="#000000" fill-opacity="1"><g transform="translate(2601.352904, 486.355283)"><g><path d="M 170.109375 -112.421875 C 149.890625 -111.765625 132.671875 -110.160156 118.453125 -107.609375 C 104.242188 -105.066406 92.660156 -101.738281 83.703125 -97.625 C 74.742188 -93.519531 68.25 -88.671875 64.21875 -83.078125 C 60.195312 -77.492188 58.1875 -71.25 58.1875 -64.34375 C 58.1875 -57.769531 59.253906 -52.097656 61.390625 -47.328125 C 63.523438 -42.566406 66.441406 -38.664062 70.140625 -35.625 C 73.835938 -32.582031 78.191406 -30.363281 83.203125 -28.96875 C 88.210938 -27.570312 93.597656 -26.875 99.359375 -26.875 C 107.078125 -26.875 114.140625 -27.65625 120.546875 -29.21875 C 126.960938 -30.78125 133.003906 -33.039062 138.671875 -36 C 144.335938 -38.957031 149.757812 -42.488281 154.9375 -46.59375 C 160.113281 -50.695312 165.171875 -55.378906 170.109375 -60.640625 Z M 28.34375 -214.484375 C 42.15625 -227.796875 57.03125 -237.738281 72.96875 -244.3125 C 88.914062 -250.882812 106.585938 -254.171875 125.984375 -254.171875 C 139.953125 -254.171875 152.359375 -251.867188 163.203125 -247.265625 C 174.046875 -242.671875 183.164062 -236.265625 190.5625 -228.046875 C 197.957031 -219.828125 203.546875 -209.878906 207.328125 -198.203125 C 211.109375 -186.535156 213 -173.71875 213 -159.75 L 213 0 L 193.53125 0 C 189.257812 0 185.972656 -0.695312 183.671875 -2.09375 C 181.367188 -3.488281 179.554688 -6.242188 178.234375 -10.359375 L 173.3125 -34.015625 C 166.738281 -27.941406 160.328125 -22.5625 154.078125 -17.875 C 147.835938 -13.1875 141.265625 -9.238281 134.359375 -6.03125 C 127.453125 -2.832031 120.09375 -0.375 112.28125 1.34375 C 104.476562 3.070312 95.8125 3.9375 86.28125 3.9375 C 76.582031 3.9375 67.457031 2.582031 58.90625 -0.125 C 50.363281 -2.832031 42.929688 -6.898438 36.609375 -12.328125 C 30.285156 -17.753906 25.273438 -24.613281 21.578125 -32.90625 C 17.878906 -41.207031 16.03125 -51.03125 16.03125 -62.375 C 16.03125 -72.238281 18.738281 -81.726562 24.15625 -90.84375 C 29.582031 -99.96875 38.375 -108.0625 50.53125 -115.125 C 62.695312 -122.195312 78.554688 -127.992188 98.109375 -132.515625 C 117.671875 -137.035156 141.671875 -139.625 170.109375 -140.28125 L 170.109375 -159.75 C 170.109375 -179.144531 165.914062 -193.8125 157.53125 -203.75 C 149.144531 -213.695312 136.898438 -218.671875 120.796875 -218.671875 C 109.953125 -218.671875 100.875 -217.3125 93.5625 -214.59375 C 86.25 -211.882812 79.921875 -208.847656 74.578125 -205.484375 C 69.234375 -202.117188 64.628906 -199.078125 60.765625 -196.359375 C 56.898438 -193.648438 53.082031 -192.296875 49.3125 -192.296875 C 46.351562 -192.296875 43.800781 -193.078125 41.65625 -194.640625 C 39.519531 -196.203125 37.710938 -198.132812 36.234375 -200.4375 Z M 28.34375 -214.484375 "/></g></g></g><g fill="#000000" fill-opacity="1"><g transform="translate(2930.228713, 486.355283)"><g><path d="M 197.46875 -190.328125 C 189.25 -201.335938 180.375 -209.019531 170.84375 -213.375 C 161.3125 -217.726562 150.628906 -219.90625 138.796875 -219.90625 C 115.617188 -219.90625 97.785156 -211.601562 85.296875 -195 C 72.804688 -178.40625 66.5625 -154.738281 66.5625 -124 C 66.5625 -107.726562 67.957031 -93.800781 70.75 -82.21875 C 73.550781 -70.632812 77.660156 -61.101562 83.078125 -53.625 C 88.503906 -46.144531 95.160156 -40.675781 103.046875 -37.21875 C 110.941406 -33.769531 119.898438 -32.046875 129.921875 -32.046875 C 144.378906 -32.046875 156.988281 -35.332031 167.75 -41.90625 C 178.519531 -48.476562 188.425781 -57.765625 197.46875 -69.765625 Z M 241.359375 -363.140625 L 241.359375 0 L 215.21875 0 C 208.976562 0 205.035156 -3.039062 203.390625 -9.125 L 199.4375 -39.4375 C 188.757812 -26.625 176.597656 -16.269531 162.953125 -8.375 C 149.316406 -0.488281 133.539062 3.453125 115.625 3.453125 C 101.320312 3.453125 88.335938 0.703125 76.671875 -4.796875 C 65.003906 -10.304688 55.0625 -18.398438 46.84375 -29.078125 C 38.625 -39.765625 32.296875 -53.078125 27.859375 -69.015625 C 23.421875 -84.960938 21.203125 -103.289062 21.203125 -124 C 21.203125 -142.40625 23.664062 -159.539062 28.59375 -175.40625 C 33.53125 -191.269531 40.597656 -205.035156 49.796875 -216.703125 C 59.003906 -228.367188 70.304688 -237.53125 83.703125 -244.1875 C 97.097656 -250.84375 112.175781 -254.171875 128.9375 -254.171875 C 144.21875 -254.171875 157.320312 -251.582031 168.25 -246.40625 C 179.1875 -241.226562 188.925781 -234.039062 197.46875 -224.84375 L 197.46875 -363.140625 Z M 241.359375 -363.140625 "/></g></g></g><g fill="#000000" fill-opacity="1"><g transform="translate(3290.16772, 486.355283)"><g><path d="M 250.234375 -249.734375 L 110.9375 73.71875 C 109.457031 77 107.609375 79.625 105.390625 81.59375 C 103.171875 83.570312 99.757812 84.5625 95.15625 84.5625 L 62.625 84.5625 L 108.234375 -14.546875 L 5.171875 -249.734375 L 43.140625 -249.734375 C 46.921875 -249.734375 49.921875 -248.785156 52.140625 -246.890625 C 54.359375 -245.003906 55.878906 -242.910156 56.703125 -240.609375 L 123.515625 -83.328125 C 126.140625 -76.421875 128.359375 -69.1875 130.171875 -61.625 C 132.472656 -69.351562 134.9375 -76.671875 137.5625 -83.578125 L 202.40625 -240.609375 C 203.382812 -243.242188 205.066406 -245.421875 207.453125 -247.140625 C 209.835938 -248.867188 212.507812 -249.734375 215.46875 -249.734375 Z M 250.234375 -249.734375 "/></g></g></g></g></g></g><g clip-path="url(#3739e2393a)"><g transform="matrix(1, 0, 0, 1, 1629, -0.000000000000056843)"><g clip-path="url(#74dabacf3d)"><g fill="#ed7615" fill-opacity="1"><g transform="translate(1.001179, 486.355283)"><g><path d="M 261.5625 -167.890625 L 216.953125 -167.890625 C 213.171875 -167.890625 210.046875 -168.875 207.578125 -170.84375 C 205.109375 -172.8125 203.132812 -175.273438 201.65625 -178.234375 L 154.828125 -272.90625 C 149.566406 -283.59375 145.535156 -293.289062 142.734375 -302 C 141.421875 -297.226562 139.816406 -292.5 137.921875 -287.8125 C 136.035156 -283.132812 133.941406 -278.164062 131.640625 -272.90625 L 87.265625 -178.234375 C 85.953125 -175.273438 83.976562 -172.8125 81.34375 -170.84375 C 78.71875 -168.875 75.351562 -167.890625 71.25 -167.890625 L 24.40625 -167.890625 L 122.28125 -356.484375 L 161.71875 -356.484375 Z M 261.5625 -167.890625 "/></g></g></g></g></g></g></g></g></svg>